{"title":"The True Meaning of Christmas Specials","uid":7943320,"size":730976256,"categoryP":"video","categoryS":"tv_shows","magnet":"?xt=urn:btih:007531a302fa83a13b27df3361e32c602903a8c4&amp;dn=The+True+Meaning+of+Christmas+Specials&amp;tr=udp%3A%2F%2Ftracker.openbittorrent.com%3A80&amp;tr=udp%3A%2F%2Fopen.demonii.com%3A1337&amp;tr=udp%3A%2F%2Ftracker.coppersurfer.tk%3A6969&amp;tr=udp%3A%2F%2Fexodus.desync.com%3A6969","seeders":0,"leechers":0,"uploader":"ClamNutz","files":1,"time":1356053984,"description":"The True Meaning of Christmas Specials is a Canadian television Christmas special, hosted by Dave Foley. It was first broadcast on CBC Television on December 22, 2002.\n\n\nVideo\nID                                       : 0\nFormat                                   : MPEG-4 Visual\nFormat settings, BVOP                    : No\nFormat settings, QPel                    : No\nFormat settings, GMC                     : No warppoints\nFormat settings, Matrix                  : Default (MPEG)\nCodec ID                                 : XVID\nCodec ID/Hint                            : XviD\nDuration                                 : 43mn 58s\nBit rate                                 : 2 013 Kbps\nWidth                                    : 512 pixels\nHeight                                   : 384 pixels\nDisplay aspect ratio                     : 4:3\nFrame rate                               : 29.970 fps\nColor space                              : YUV\nChroma subsampling                       : 4:2:0\nBit depth                                : 8 bits\nScan type                                : Progressive\nCompression mode                         : Lossy\nBits/(Pixel*Frame)                       : 0.342\nStream size                              : 633 MiB (91%)\nWriting library                          : XviD 0.0.03 (UTC 2002-12-09)\n\nAudio\nID                                       : 1\nFormat                                   : MPEG Audio\nFormat version                           : Version 1\nFormat profile                           : Layer 3\nCodec ID                                 : 55\nCodec ID/Hint                            : MP3\nDuration                                 : 43mn 54s\nBit rate mode                            : Constant\nBit rate                                 : 192 Kbps\nChannel(s)                               : 2 channels\nSampling rate                            : 44.1 KHz\nCompression mode                         : Lossy\nStream size                              : 60.3 MiB (9%)\nAlignment                                : Split accross interleaves\nInterleave, duration                     : 33 ms (1.00 video frame)\nInterleave, preload duration             : 500 ms\nWriting library                          : LAME3.92 \nEncoding settings                        : -m s -V 4 -q 2 -lowpass 18.7 -b 192","torrent":{"xt":"urn:btih:007531a302fa83a13b27df3361e32c602903a8c4","amp;dn":"The+True+Meaning+of+Christmas+Specials","amp;tr":["udp%3A%2F%2Ftracker.openbittorrent.com%3A80","udp%3A%2F%2Fopen.demonii.com%3A1337","udp%3A%2F%2Ftracker.coppersurfer.tk%3A6969","udp%3A%2F%2Fexodus.desync.com%3A6969"],"infoHash":"007531a302fa83a13b27df3361e32c602903a8c4","infoHashBuffer":{"type":"Buffer","data":[0,117,49,163,2,250,131,161,59,39,223,51,97,227,44,96,41,3,168,196]},"announce":[],"urlList":[]}}